<svg id="Capa_1" enable-background="new 0 0 512 512" height="512" viewBox="0 0 512 512" width="512" xmlns="http://www.w3.org/2000/svg"><circle cx="256" cy="256" fill="#da4a54" r="256"/><path d="m367.919 99.248-98.722 98.733-45.328 45.338-2.627 2.627-8.334 8.324-14.927 14.927-19.676 19.666-79.056 79.056c-22.562-31.544-35.841-70.186-35.841-111.919 0-106.366 86.226-192.592 192.592-192.592 41.733 0 80.375 13.279 111.919 35.84z" fill="#f9f6f9"/><path d="m448.592 256c0 106.366-86.226 192.592-192.592 192.592-41.733 0-80.375-13.279-111.919-35.84l98.733-98.722 15.484-15.484 5.687-5.697 2.081-2.081 44.813-44.813 3.152-3.142 98.722-98.733c22.56 31.545 35.839 70.187 35.839 111.92z" fill="#f9f6f9"/><path d="m216.544 234.902 7.325 8.416-2.627 2.627-8.334 8.324-8.025-9.23c-7.108-8.18-8.736-19.81-4.162-29.628l20.295-43.525 14.01 6.531-20.295 43.525c-2.009 4.296-1.288 9.385 1.813 12.96z" fill="#544f57"/><path d="m372.249 227.944s36.837-5.424 53.915 24.155l-12.198 13.755s-36.765-10.418-39.397 10.421l-63.691-30.32z" fill="#544f57"/><path d="m355.804 313.247-52.838 96.878c-6.84 12.548-23.818 14.989-33.924 4.883l-36.736-36.736c-6.717-6.717-8.2-17.049-3.657-25.384l29.649-54.342 5.687-5.697 2.081-2.081 42.042-42.042 32.255 5.913z" fill="#e28424"/><path d="m318.233 148.933-63.356 63.356-112.063-112.114-11.507-11.507 15.947-15.948 47.399-47.398 39.322 39.332z" fill="#756e78"/><path d="m374.574 276.274c3.987 6.727 2.895 15.309-2.637 20.841l-16.133 16.133-56.104-56.115 11.178-11.177 52.179-52.179 19.491 19.501c-17.091 17.091-19.749 43.134-7.974 62.996z" fill="#756e78"/><g fill="#544f57"><circle cx="278.344" cy="355.065" r="17.471"/><path d="m206.778 41.676h15.443v174.791h-15.443z" transform="matrix(.707 -.707 .707 .707 -28.442 189.478)"/></g></svg>