<svg id="Capa_1" enable-background="new 0 0 509.998 509.998" height="512" viewBox="0 0 509.998 509.998" width="512" xmlns="http://www.w3.org/2000/svg"><path d="m254.866 383.218-26.985 11.295c-16.723 6.994-32.023 16.968-45.166 29.432l-46.003 46.003-57.067-29.685-29.663-57.045 102.442-102.442z" fill="#ad5e2e"/><path d="m254.866 383.218-26.985 11.295c-16.723 6.994-32.023 16.968-45.166 29.432l-46.003 46.003-57.067-29.685 116.133-116.133z" fill="#7e5436"/><path d="m136.705 469.941-34.087 34.087c-7.975 7.961-20.879 7.961-28.84 0l-57.897-57.897c-7.961-7.961-7.961-20.88.007-28.833l34.087-34.087z" fill="#685e68"/><path d="m136.705 469.941-34.087 34.087c-7.975 7.961-20.879 7.961-28.84 0l-28.948-28.948 48.507-48.507z" fill="#40383f"/><path d="m464.158 142.468-142.09 142.09-73.85 73.85-86.72-86.72 200.62-200.62c1.82-1.82 4.26-2.88 6.84-2.98 39.728-1.62 79.596-28.889 102.88-63.62 4.46-6.66 14.54-5.68 17.78 1.64 2.57 5.82 4.67 11.8 6.3 17.89 11.103 41.605-.132 86.844-31.76 118.47z" fill="#d7ebed"/><path d="m248.218 358.413-43.361-43.361 291.057-291.058c11.038 41.256.077 86.646-31.756 118.479z" fill="#b6dade"/><path d="m464.158 142.468-142.09 142.09v-173.44l40.05-40.05c1.82-1.82 4.26-2.88 6.84-2.98 39.728-1.62 79.596-28.889 102.88-63.62 4.46-6.66 14.54-5.68 17.78 1.64 2.57 5.82 4.67 11.8 6.3 17.89 11.103 41.605-.132 86.844-31.76 118.47z" fill="#ff5b5b"/><path d="m464.158 142.468-142.09 142.09v-86.72l173.85-173.84c11.103 41.605-.132 86.844-31.76 118.47z" fill="#f40000"/><path d="m295.874 408.609c-6.373 6.373-16.688 6.349-23.038 0l-161.536-161.537c-6.366-6.366-6.359-16.679 0-23.038 6.358-6.358 16.672-6.365 23.038 0l161.536 161.536c6.365 6.367 6.366 16.673 0 23.039z" fill="#685e68"/><path d="m295.874 408.609c-6.373 6.373-16.688 6.349-23.038 0l-80.768-80.768 23.037-23.037 80.768 80.768c6.366 6.365 6.367 16.671.001 23.037z" fill="#40383f"/></svg>