<svg xmlns="http://www.w3.org/2000/svg" height="511pt" version="1.1" viewBox="-61 0 511 511.99904" width="511pt">
<g id="surface1">
<path d="M 194.734375 211.859375 C 190.050781 211.871094 185.558594 210.007812 182.253906 206.6875 L 132.316406 256.625 L 182.253906 206.6875 C 175.359375 199.792969 175.363281 188.613281 182.257812 181.71875 C 185.566406 178.410156 190.054688 176.550781 194.734375 176.550781 L 194.734375 35.308594 C 106.980469 35.308594 35.839844 106.449219 35.839844 194.203125 C 35.839844 281.960938 106.980469 353.101562 194.734375 353.101562 Z M 194.734375 211.859375 " style=" stroke:none;fill-rule:nonzero;fill:rgb(100%,80.392157%,0%);fill-opacity:1;" />
<path d="M 318.320312 194.207031 L 353.628906 194.207031 C 353.628906 106.449219 282.492188 35.3125 194.734375 35.3125 L 194.734375 176.550781 C 204.488281 176.554688 212.390625 184.457031 212.386719 194.210938 C 212.386719 198.890625 210.527344 203.378906 207.21875 206.6875 L 282.128906 281.597656 L 207.226562 206.695312 C 203.917969 210.015625 199.421875 211.875 194.734375 211.859375 L 194.734375 353.101562 C 282.492188 353.101562 353.628906 281.960938 353.628906 194.203125 L 318.320312 194.203125 Z M 318.320312 194.207031 " style=" stroke:none;fill-rule:nonzero;fill:rgb(100%,89.411765%,46.666667%);fill-opacity:1;" />
<path d="M 194.734375 79.449219 C 189.859375 79.449219 185.90625 75.496094 185.90625 70.621094 L 185.90625 35.308594 C 185.90625 30.433594 189.859375 26.480469 194.734375 26.480469 C 199.613281 26.480469 203.5625 30.433594 203.5625 35.308594 L 203.5625 70.621094 C 203.5625 75.496094 199.613281 79.449219 194.734375 79.449219 Z M 194.734375 79.449219 " style=" stroke:none;fill-rule:nonzero;fill:rgb(30.588235%,56.470588%,11.764706%);fill-opacity:1;" />
<path d="M 194.734375 361.929688 C 189.859375 361.929688 185.90625 357.976562 185.90625 353.101562 L 185.90625 317.789062 C 185.90625 312.914062 189.859375 308.960938 194.734375 308.960938 C 199.613281 308.960938 203.5625 312.914062 203.5625 317.789062 L 203.5625 353.101562 C 203.5625 357.976562 199.613281 361.929688 194.734375 361.929688 Z M 194.734375 361.929688 " style=" stroke:none;fill-rule:nonzero;fill:rgb(30.588235%,56.470588%,11.764706%);fill-opacity:1;" />
<path d="M 71.152344 203.03125 L 35.839844 203.03125 C 30.964844 203.03125 27.015625 199.082031 27.015625 194.203125 C 27.015625 189.328125 30.964844 185.378906 35.839844 185.378906 L 71.152344 185.378906 C 76.027344 185.378906 79.980469 189.328125 79.980469 194.203125 C 79.976562 199.082031 76.027344 203.03125 71.152344 203.03125 Z M 71.152344 203.03125 " style=" stroke:none;fill-rule:nonzero;fill:rgb(30.588235%,56.470588%,11.764706%);fill-opacity:1;" />
<path d="M 353.628906 203.03125 L 318.320312 203.03125 C 313.445312 203.03125 309.492188 199.082031 309.492188 194.203125 C 309.492188 189.328125 313.445312 185.378906 318.320312 185.378906 L 353.628906 185.378906 C 358.503906 185.378906 362.457031 189.328125 362.457031 194.203125 C 362.457031 199.082031 358.507812 203.03125 353.628906 203.03125 Z M 353.628906 203.03125 " style=" stroke:none;fill-rule:nonzero;fill:rgb(30.588235%,56.470588%,11.764706%);fill-opacity:1;" />
<path d="M 212.390625 194.207031 C 212.390625 203.957031 204.488281 211.859375 194.734375 211.859375 C 184.984375 211.859375 177.082031 203.957031 177.082031 194.207031 C 177.082031 184.453125 184.984375 176.550781 194.734375 176.550781 C 204.488281 176.550781 212.390625 184.453125 212.390625 194.207031 Z M 212.390625 194.207031 " style=" stroke:none;fill-rule:nonzero;fill:rgb(36.862745%,67.45098%,14.117647%);fill-opacity:1;" />
<path d="M 344.804688 481.097656 C 344.804688 493.289062 334.921875 503.167969 322.734375 503.167969 C 310.546875 503.167969 300.664062 493.289062 300.664062 481.097656 C 300.664062 468.910156 310.546875 459.03125 322.734375 459.03125 C 334.921875 459.03125 344.804688 468.910156 344.804688 481.097656 Z M 344.804688 481.097656 " style=" stroke:none;fill-rule:nonzero;fill:rgb(51.372549%,81.176471%,59.215686%);fill-opacity:1;" />
<path d="M 218.570312 205.539062 C 224.855469 192.375 219.28125 176.609375 206.117188 170.324219 C 192.953125 164.039062 177.1875 169.617188 170.902344 182.78125 C 167.464844 189.976562 167.464844 198.34375 170.902344 205.539062 L 126.058594 250.382812 C 122.550781 253.769531 122.453125 259.359375 125.839844 262.867188 C 129.226562 266.375 134.816406 266.46875 138.324219 263.082031 C 138.394531 263.011719 138.46875 262.941406 138.539062 262.867188 L 183.382812 218.023438 C 190.527344 221.550781 198.910156 221.550781 206.054688 218.023438 L 275.859375 287.832031 C 279.367188 291.21875 284.957031 291.121094 288.34375 287.613281 C 291.648438 284.195312 291.648438 278.769531 288.34375 275.347656 Z M 188.511719 200.445312 C 185.066406 197 185.0625 191.410156 188.511719 187.964844 C 191.957031 184.515625 197.546875 184.515625 200.996094 187.960938 C 204.441406 191.410156 204.441406 196.996094 200.996094 200.445312 C 197.550781 203.898438 191.960938 203.90625 188.511719 200.460938 C 188.507812 200.457031 188.5 200.453125 188.496094 200.445312 Z M 188.511719 200.445312 " style=" stroke:none;fill-rule:nonzero;fill:rgb(30.588235%,56.470588%,11.764706%);fill-opacity:1;" />
<path d="M 35.839844 194.207031 C 35.839844 106.449219 106.980469 35.3125 194.734375 35.3125 L 194.734375 0 C 187.683594 0 180.636719 0.371094 173.621094 1.113281 C 67.078125 12.679688 -9.917969 108.425781 1.648438 214.96875 C 5.332031 248.882812 17.890625 281.226562 38.054688 308.742188 C 42.453125 314.925781 44.769531 322.34375 44.667969 329.929688 L 44.667969 441.375 C 44.683594 450.738281 48.398438 459.714844 54.996094 466.355469 C 67.195312 478.285156 86.046875 480.121094 100.316406 470.769531 C 110.179688 464.453125 115.90625 453.339844 115.324219 441.640625 C 115.121094 422.664062 129.980469 406.929688 148.9375 406.046875 C 169.226562 405.914062 185.777344 422.25 185.914062 442.535156 C 185.914062 442.8125 185.914062 443.09375 185.90625 443.371094 L 185.90625 475.148438 C 185.917969 484.03125 189.042969 492.628906 194.734375 499.441406 L 194.734375 353.101562 C 106.980469 353.101562 35.839844 281.960938 35.839844 194.207031 Z M 35.839844 194.207031 " style=" stroke:none;fill-rule:nonzero;fill:rgb(39.215686%,76.470588%,49.019608%);fill-opacity:1;" />
<path d="M 194.734375 0 L 194.734375 35.308594 C 282.492188 35.308594 353.628906 106.449219 353.628906 194.203125 C 353.628906 281.960938 282.492188 353.101562 194.734375 353.101562 L 194.734375 499.46875 C 200.472656 506.476562 208.757812 510.917969 217.765625 511.828125 C 237.175781 513.734375 254.453125 499.546875 256.359375 480.136719 C 256.472656 478.988281 256.527344 477.839844 256.527344 476.683594 L 256.527344 392.824219 C 256.492188 381.140625 265.59375 371.46875 277.257812 370.800781 C 289.96875 370.582031 300.449219 380.714844 300.667969 393.425781 C 300.671875 393.695312 300.671875 393.964844 300.667969 394.234375 L 300.667969 419.304688 C 300.605469 431.003906 309.714844 440.703125 321.394531 441.375 C 334.105469 441.59375 344.589844 431.464844 344.804688 418.75 C 344.808594 418.464844 344.808594 418.179688 344.804688 417.894531 L 344.804688 330.042969 C 344.703125 322.390625 347.039062 314.910156 351.46875 308.671875 C 414.777344 222.207031 396.011719 100.792969 309.546875 37.480469 C 276.238281 13.09375 236.019531 -0.0390625 194.734375 0 Z M 194.734375 0 " style=" stroke:none;fill-rule:nonzero;fill:rgb(51.372549%,81.176471%,59.215686%);fill-opacity:1;" />
</g>
</svg>